<svg width="40" height="40" viewBox="0 0 40 40" fill="none" xmlns="http://www.w3.org/2000/svg">
<path d="M23.8834 33.3333H23.5334C22.828 33.2633 22.1632 32.9703 21.6357 32.4967C21.1082 32.0232 20.7454 31.3938 20.6 30.7L16.1334 10L11.5334 20.6667C11.4033 20.9648 11.1888 21.2183 10.9163 21.396C10.6438 21.5737 10.3253 21.6678 10 21.6667H5.00004C4.55801 21.6667 4.13409 21.4911 3.82153 21.1785C3.50897 20.866 3.33337 20.442 3.33337 20C3.33337 19.558 3.50897 19.1341 3.82153 18.8215C4.13409 18.5089 4.55801 18.3333 5.00004 18.3333H8.90004L13.0834 8.68334C13.365 8.03578 13.845 7.49438 14.4541 7.13719C15.0633 6.78001 15.7701 6.62551 16.4727 6.69595C17.1753 6.7664 17.8374 7.05816 18.3636 7.52917C18.8897 8.00018 19.2526 8.6261 19.4 9.31668L23.8667 30L28.4667 19.3667C28.5917 19.0623 28.8041 18.8018 29.0769 18.6179C29.3498 18.434 29.671 18.335 30 18.3333H35C35.4421 18.3333 35.866 18.5089 36.1786 18.8215C36.4911 19.1341 36.6667 19.558 36.6667 20C36.6667 20.442 36.4911 20.866 36.1786 21.1785C35.866 21.4911 35.4421 21.6667 35 21.6667H31.1L26.9167 31.3167C26.6613 31.9109 26.2385 32.4179 25.6999 32.776C25.1613 33.1341 24.5301 33.3277 23.8834 33.3333Z" fill="#C1BBEB"/>
</svg>
