<svg class="svg-icon" style="width: 1em; height: 1em;vertical-align: middle;fill: currentColor;overflow: hidden;" viewBox="0 0 1024 1024" version="1.1" xmlns="http://www.w3.org/2000/svg"><path d="M592.7 343.4c-19.3 0-35-15.7-35-35v-65.1h-93.5v65.1c0 19.3-15.7 35-35 35s-35-15.7-35-35v-71.9c0-34.9 28.4-63.3 63.3-63.3h107c34.9 0 63.3 28.4 63.3 63.3v71.9c-0.1 19.3-15.8 35-35.1 35z"  /><path d="M428.8 346.3H247.7c-19.3 0-35-15.7-35-35s15.7-35 35-35h181.2c19.3 0 35 15.7 35 35s-15.7 35-35.1 35zM774 346.3H592.9c-19.3 0-35-15.7-35-35s15.7-35 35-35H774c19.3 0 35 15.7 35 35s-15.6 35-35 35zM707.2 854.4h-384c-18.7 0-34.1-14.7-35-33.4l-18.1-403.9c-0.9-19.3 14.1-35.7 33.4-36.5 19.3-0.9 35.7 14.1 36.5 33.4l16.6 370.5h317L690.2 414c0.9-19.3 17.2-34.3 36.5-33.4 19.3 0.9 34.3 17.2 33.4 36.5L742 821c-0.7 18.6-16.1 33.4-34.8 33.4z"  /><path d="M454.1 723.3c-13.8 0-25-11.2-25-25V410.8c0-13.8 11.2-25 25-25s25 11.2 25 25v287.5c0 13.8-11.2 25-25 25zM579.9 723.3c-13.8 0-25-11.2-25-25V410.8c0-13.8 11.2-25 25-25s25 11.2 25 25v287.5c0 13.8-11.2 25-25 25z"  /></svg>