<svg width="40" height="40" viewBox="0 0 40 40" fill="none" xmlns="http://www.w3.org/2000/svg">
<path d="M14.2545 3.50918C11.9689 4.64227 10.0465 6.39316 8.7053 8.56328C7.36414 10.7334 6.65791 13.2359 6.66671 15.787V21.7167C6.66777 22.5871 7.01403 23.4217 7.62954 24.0372C8.24506 24.6527 9.07957 24.999 9.95004 25H13.3334V35C13.3334 35.442 13.509 35.866 13.8215 36.1785C14.1341 36.4911 14.558 36.6667 15 36.6667C15.4421 36.6667 15.866 36.4911 16.1786 36.1785C16.4911 35.866 16.6667 35.442 16.6667 35V5.00001C16.6665 4.71599 16.5937 4.43674 16.4553 4.18872C16.3169 3.94071 16.1174 3.73216 15.8758 3.58284C15.6342 3.43352 15.3585 3.34838 15.0747 3.33549C14.791 3.32259 14.5087 3.38238 14.2545 3.50918ZM13.3334 21.6833L10 21.7167V15.787C9.99504 14.3525 10.2888 12.9327 10.8627 11.6181C11.4366 10.3034 12.278 9.12262 13.3334 8.15101V21.6833ZM30 5.00001V11.6667C29.9995 12.1085 29.8237 12.5321 29.5112 12.8446C29.1988 13.157 28.7752 13.3328 28.3334 13.3333V5.00001C28.3334 4.55798 28.1578 4.13406 27.8452 3.8215C27.5327 3.50894 27.1087 3.33334 26.6667 3.33334C26.2247 3.33334 25.8008 3.50894 25.4882 3.8215C25.1756 4.13406 25 4.55798 25 5.00001V13.3333C24.5582 13.3328 24.1346 13.157 23.8222 12.8446C23.5097 12.5321 23.3339 12.1085 23.3334 11.6667V5.00001C23.3334 4.55798 23.1578 4.13406 22.8452 3.8215C22.5327 3.50894 22.1087 3.33334 21.6667 3.33334C21.2247 3.33334 20.8008 3.50894 20.4882 3.8215C20.1756 4.13406 20 4.55798 20 5.00001V11.6667C20.0015 12.9923 20.5287 14.2632 21.4661 15.2006C22.4035 16.138 23.6744 16.6652 25 16.6667V35C25 35.442 25.1756 35.866 25.4882 36.1785C25.8008 36.4911 26.2247 36.6667 26.6667 36.6667C27.1087 36.6667 27.5327 36.4911 27.8452 36.1785C28.1578 35.866 28.3334 35.442 28.3334 35V16.6667C29.659 16.6652 30.9299 16.138 31.8673 15.2006C32.8047 14.2632 33.3319 12.9923 33.3334 11.6667V5.00001C33.3334 4.55798 33.1578 4.13406 32.8452 3.8215C32.5327 3.50894 32.1087 3.33334 31.6667 3.33334C31.2247 3.33334 30.8008 3.50894 30.4882 3.8215C30.1756 4.13406 30 4.55798 30 5.00001Z" fill="#C1BBEB"/>
</svg>
