<svg class="svg-icon" style="width: 1em; height: 1em;vertical-align: middle;fill: currentColor;overflow: hidden;" viewBox="0 0 1024 1024" version="1.1" xmlns="http://www.w3.org/2000/svg"><path d="M250.88 51.2 250.88 51.2c5.12 0 15.36 0 33.28 25.6 30.72 40.96 48.64 89.6 61.44 128l0 2.56c5.12 17.92 17.92 56.32 7.68 66.56-20.48 7.68-38.4 17.92-53.76 33.28-12.8 10.24-25.6 25.6-30.72 46.08-5.12 17.92-2.56 35.84 7.68 53.76 2.56 2.56 35.84 64 48.64 87.04 25.6 40.96 133.12 174.08 158.72 199.68 20.48 20.48 40.96 38.4 61.44 51.2 15.36 12.8 28.16 20.48 43.52 28.16 12.8 7.68 28.16 10.24 40.96 10.24 23.04 0 43.52-7.68 66.56-23.04 15.36-10.24 25.6-23.04 35.84-33.28 5.12 2.56 15.36 7.68 25.6 17.92 43.52 30.72 140.8 92.16 145.92 94.72 0 0 2.56 2.56 2.56 2.56 0 0 5.12 5.12 7.68 10.24 2.56 7.68-2.56 20.48-12.8 33.28C865.28 947.2 821.76 972.8 762.88 972.8c-7.68 0-17.92 0-25.6-2.56-66.56-7.68-284.16-192-391.68-307.2-69.12-76.8-248.32-366.08-240.64-460.8 0-2.56 0-5.12 0-7.68 0 0-2.56-58.88 58.88-99.84C192 76.8 227.84 51.2 250.88 51.2M747.52 714.24 747.52 714.24 747.52 714.24M250.88 0C217.6 0 181.76 20.48 135.68 53.76 48.64 115.2 53.76 199.68 53.76 199.68c-10.24 122.88 194.56 435.2 253.44 499.2 81.92 87.04 325.12 312.32 422.4 322.56 10.24 0 20.48 2.56 30.72 2.56 79.36 0 135.68-38.4 184.32-110.08 56.32-81.92-15.36-117.76-15.36-117.76s-99.84-61.44-143.36-92.16c-33.28-25.6-53.76-30.72-66.56-30.72-2.56 0-5.12 0-7.68 0-7.68 2.56-12.8 12.8-17.92 17.92-10.24 10.24-20.48 20.48-30.72 28.16-10.24 7.68-25.6 15.36-38.4 15.36-5.12 0-12.8-2.56-17.92-5.12-12.8-7.68-25.6-15.36-35.84-23.04-20.48-15.36-38.4-30.72-56.32-48.64-25.6-23.04-48.64-51.2-71.68-76.8-28.16-35.84-53.76-71.68-79.36-110.08-15.36-23.04-28.16-46.08-40.96-69.12-2.56-5.12-5.12-10.24-10.24-17.92-2.56-5.12-2.56-7.68-2.56-12.8 2.56-7.68 10.24-15.36 15.36-23.04 10.24-10.24 23.04-17.92 35.84-23.04 7.68-2.56 15.36-10.24 23.04-15.36 25.6-33.28 7.68-81.92-2.56-117.76-15.36-51.2-35.84-99.84-69.12-143.36C302.08 15.36 276.48 0 250.88 0L250.88 0z"  /></svg>