<svg width="40" height="40" viewBox="0 0 40 40" fill="none" xmlns="http://www.w3.org/2000/svg">
<path d="M26.1757 10.875C26.1757 11.2187 26.1523 11.5625 26.1093 11.9023C26.1289 11.7656 26.1484 11.625 26.164 11.4883C26.0703 12.168 25.8906 12.8281 25.6289 13.4609C25.6796 13.3359 25.7343 13.2109 25.7851 13.0859C25.5234 13.7031 25.1875 14.2812 24.7773 14.8125C24.8593 14.707 24.9414 14.6016 25.0234 14.4961C24.6171 15.0195 24.1445 15.4922 23.621 15.8984C23.7265 15.8164 23.832 15.7344 23.9375 15.6523C23.4062 16.0586 22.8281 16.3984 22.2109 16.6601C22.3359 16.6094 22.4609 16.5547 22.5859 16.5039C21.9531 16.7656 21.2929 16.9453 20.6132 17.0391C20.75 17.0195 20.8906 17 21.0273 16.9844C20.3437 17.0742 19.6562 17.0742 18.9726 16.9844C19.1093 17.0039 19.25 17.0234 19.3867 17.0391C18.707 16.9453 18.0468 16.7656 17.414 16.5039C17.539 16.5547 17.664 16.6094 17.789 16.6601C17.1718 16.3984 16.5937 16.0625 16.0624 15.6523C16.1679 15.7344 16.2734 15.8164 16.3789 15.8984C15.8554 15.4922 15.3828 15.0195 14.9765 14.4961C15.0585 14.6016 15.1406 14.707 15.2226 14.8125C14.8164 14.2812 14.4765 13.7031 14.2148 13.0859C14.2656 13.2109 14.3203 13.3359 14.371 13.4609C14.1093 12.8281 13.9296 12.168 13.8359 11.4883C13.8554 11.625 13.8749 11.7656 13.8906 11.9023C13.8007 11.2187 13.8007 10.5312 13.8906 9.84765C13.871 9.98437 13.8515 10.125 13.8359 10.2617C13.9296 9.58202 14.1093 8.92187 14.371 8.28905C14.3203 8.41405 14.2656 8.53905 14.2148 8.66405C14.4765 8.04687 14.8124 7.46874 15.2226 6.93749C15.1406 7.04296 15.0585 7.14843 14.9765 7.2539C15.3828 6.73046 15.8554 6.2578 16.3789 5.85155C16.2734 5.93359 16.1679 6.01562 16.0624 6.09765C16.5937 5.6914 17.1718 5.35155 17.789 5.08984C17.664 5.14062 17.539 5.1953 17.414 5.24609C18.0468 4.98437 18.707 4.80468 19.3867 4.71093C19.25 4.73046 19.1093 4.74999 18.9726 4.76562C19.6562 4.67577 20.3437 4.67577 21.0273 4.76562C20.8906 4.74609 20.75 4.72655 20.6132 4.71093C21.2929 4.80468 21.9531 4.98437 22.5859 5.24609C22.4609 5.1953 22.3359 5.14062 22.2109 5.08984C22.8281 5.35155 23.4062 5.68749 23.9375 6.09765C23.832 6.01562 23.7265 5.93359 23.621 5.85155C24.1445 6.2578 24.6171 6.73046 25.0234 7.2539C24.9414 7.14843 24.8593 7.04296 24.7773 6.93749C25.1836 7.46874 25.5234 8.04687 25.7851 8.66405C25.7343 8.53905 25.6796 8.41405 25.6289 8.28905C25.8906 8.92187 26.0703 9.58202 26.164 10.2617C26.1445 10.125 26.125 9.98437 26.1093 9.84765C26.1523 10.1875 26.1718 10.5312 26.1757 10.875C26.1796 11.6914 26.8906 12.4766 27.7382 12.4375C28.582 12.3984 29.3046 11.75 29.3007 10.875C29.2929 9.0039 28.7304 7.08984 27.6289 5.5664C27.332 5.15624 27.0156 4.7539 26.664 4.39062C26.3085 4.02343 25.9179 3.70702 25.5117 3.39843C24.7734 2.83593 23.9492 2.42187 23.0742 2.10155C19.5468 0.808586 15.2929 1.96093 12.9062 4.86718C12.5781 5.26562 12.2656 5.67968 11.9999 6.12499C11.7343 6.5664 11.5273 7.03515 11.3359 7.51171C10.9765 8.39452 10.7929 9.33202 10.7187 10.2812C10.5742 12.1406 11.0585 14.082 12.0273 15.6758C12.9609 17.2148 14.371 18.5351 16.0195 19.2812C16.5039 19.5 16.9999 19.7031 17.5156 19.8476C18.0273 19.9883 18.5468 20.0664 19.0742 20.1289C20.0351 20.2422 21.0156 20.1641 21.9648 19.9726C25.5703 19.2383 28.5898 16.1328 29.1484 12.4883C29.2304 11.957 29.2929 11.4258 29.2929 10.8867C29.2968 10.0703 28.5703 9.28515 27.7304 9.32421C26.8867 9.35155 26.1757 9.99999 26.1757 10.875ZM31.3593 35.3008C30.5937 35.3008 29.8281 35.3008 29.0625 35.3008C27.2382 35.3008 25.4179 35.3008 23.5937 35.3008C21.3984 35.3008 19.2031 35.3008 17.0039 35.3008C15.1093 35.3008 13.2148 35.3008 11.3164 35.3008C10.4296 35.3008 9.54291 35.3086 8.65619 35.3008C8.55854 35.3008 8.46088 35.293 8.36713 35.2812C8.50385 35.3008 8.64447 35.3203 8.78119 35.3359C8.62494 35.3125 8.4765 35.2695 8.33197 35.2109C8.45697 35.2617 8.58197 35.3164 8.70697 35.3672C8.55072 35.3008 8.40619 35.2148 8.26947 35.1094C8.37494 35.1914 8.48041 35.2734 8.58588 35.3555C8.46869 35.2578 8.35932 35.1523 8.26557 35.0351C8.3476 35.1406 8.42963 35.2461 8.51166 35.3516C8.40619 35.2148 8.32416 35.0703 8.25385 34.9141C8.30463 35.0391 8.35932 35.1641 8.4101 35.2891C8.3515 35.1445 8.31244 34.9922 8.2851 34.8398C8.30463 34.9766 8.32416 35.1172 8.33979 35.2539C8.27729 34.7812 8.32025 34.2812 8.32025 33.8047C8.32025 33.2461 8.32025 32.6914 8.32025 32.1328C8.32025 31.7148 8.34369 31.3008 8.39838 30.8867C8.37885 31.0234 8.35932 31.1641 8.34369 31.3008C8.45307 30.5 8.664 29.7148 8.98041 28.9687C8.92963 29.0937 8.87494 29.2187 8.82416 29.3437C9.12885 28.6328 9.51947 27.9648 9.99213 27.3516C9.9101 27.457 9.82807 27.5625 9.74604 27.668C10.2187 27.0625 10.7617 26.5156 11.371 26.043C11.2656 26.125 11.1601 26.207 11.0546 26.2891C11.6679 25.8164 12.3359 25.4258 13.0468 25.1211C12.9218 25.1719 12.7968 25.2266 12.6718 25.2773C13.4179 24.9648 14.1992 24.75 15.0039 24.6406C14.8671 24.6601 14.7265 24.6797 14.5898 24.6953C15.1679 24.6211 15.7421 24.6172 16.3242 24.6172C17.039 24.6172 17.7539 24.6172 18.4687 24.6172C20.1367 24.6172 21.8046 24.6172 23.4726 24.6172C24.1171 24.6172 24.7578 24.6133 25.4023 24.6953C25.2656 24.6758 25.125 24.6562 24.9882 24.6406C25.789 24.75 26.5742 24.9609 27.3203 25.2773C27.1953 25.2266 27.0703 25.1719 26.9453 25.1211C27.6562 25.4258 28.3242 25.8164 28.9375 26.2891C28.832 26.207 28.7265 26.125 28.6211 26.043C29.2265 26.5156 29.7734 27.0586 30.2461 27.668C30.164 27.5625 30.082 27.457 30 27.3516C30.4726 27.9648 30.8632 28.6328 31.1679 29.3437C31.1172 29.2187 31.0625 29.0937 31.0117 28.9687C31.3242 29.7148 31.539 30.4961 31.6484 31.3008C31.6289 31.1641 31.6093 31.0234 31.5937 30.8867C31.6679 31.4766 31.6718 32.0625 31.6718 32.6562C31.6718 33.3008 31.6718 33.9453 31.6718 34.5898C31.6718 34.8125 31.6796 35.0351 31.6523 35.2539C31.6718 35.1172 31.6914 34.9766 31.707 34.8398C31.6836 34.9961 31.6406 35.1445 31.582 35.2891C31.6328 35.1641 31.6875 35.0391 31.7382 34.9141C31.6718 35.0703 31.5859 35.2148 31.4804 35.3516C31.5625 35.2461 31.6445 35.1406 31.7265 35.0351C31.6289 35.1523 31.5234 35.2617 31.4062 35.3555C31.5117 35.2734 31.6171 35.1914 31.7226 35.1094C31.5859 35.2148 31.4414 35.2969 31.2851 35.3672C31.4101 35.3164 31.5351 35.2617 31.6601 35.2109C31.5156 35.2695 31.3632 35.3086 31.2109 35.3359C31.3476 35.3164 31.4882 35.2969 31.625 35.2812C31.539 35.293 31.4492 35.2969 31.3593 35.3008C30.957 35.3047 30.5429 35.4726 30.2539 35.7578C29.9843 36.0273 29.7773 36.4726 29.7968 36.8633C29.8359 37.6992 30.4843 38.4375 31.3593 38.4258C32.8789 38.4023 34.2148 37.4101 34.6601 35.9531C34.8359 35.375 34.7968 34.7539 34.7968 34.1601C34.7968 32.8008 34.8398 31.4531 34.6054 30.1055C34.2617 28.1328 33.2695 26.2773 31.9101 24.8203C30.5507 23.3633 28.7226 22.293 26.789 21.8164C25.6796 21.543 24.5625 21.5 23.4296 21.5C22.2656 21.5 21.1054 21.5 19.9414 21.5C18.7929 21.5 17.6484 21.5 16.4999 21.5C15.3398 21.5 14.1874 21.5547 13.0585 21.8555C11.1406 22.3633 9.33588 23.4453 8.00385 24.9141C6.6601 26.3945 5.68744 28.2539 5.37103 30.2383C5.16009 31.5703 5.20306 32.9062 5.20306 34.25C5.20306 34.8672 5.16791 35.5117 5.39056 36.1016C5.67963 36.8594 6.14056 37.457 6.81635 37.9062C7.34369 38.2539 8.01166 38.4219 8.63666 38.4297C8.94135 38.4336 9.24604 38.4297 9.55072 38.4297C10.332 38.4297 11.1093 38.4297 11.8906 38.4297C12.9999 38.4297 14.1054 38.4297 15.2148 38.4297C16.5039 38.4297 17.7929 38.4297 19.082 38.4297C20.4062 38.4297 21.7265 38.4297 23.0507 38.4297C24.2617 38.4297 25.4687 38.4297 26.6796 38.4297C27.6289 38.4297 28.5781 38.4297 29.5234 38.4297C30.0664 38.4297 30.6093 38.4297 31.1523 38.4297C31.2226 38.4297 31.2929 38.4297 31.3632 38.4297C32.1797 38.4297 32.9648 37.7109 32.9257 36.8672C32.8867 36.0156 32.2382 35.3008 31.3593 35.3008Z" fill="#C1BBEB"/>
</svg>
